HIERARCHY
ROOT Hips
{
	OFFSET 0.000000 0.000000 0.000000
	CHANNELS 6 Xposition Yposition Zposition Zrotation Yrotation Xrotation 
	JOINT LowerBack
	{
		OFFSET 0.000000 0.000000 0.000000
		CHANNELS 3 Zrotation Yrotation Xrotation
		JOINT Spine
		{
			OFFSET 0.028270 2.035590 -0.193380
			CHANNELS 3 Zrotation Yrotation Xrotation
			JOINT Spine1
			{
				OFFSET 0.056720 2.048850 -0.042750
				CHANNELS 3 Zrotation Yrotation Xrotation
				JOINT Neck
				{
					OFFSET 0.000000 0.000000 0.000000
					CHANNELS 3 Zrotation Yrotation Xrotation
					JOINT Neck1
					{
						OFFSET -0.054170 1.746240 0.172020
						CHANNELS 3 Zrotation Yrotation Xrotation
						JOINT Head
						{
							OFFSET 0.104070 1.761360 -0.123970
							CHANNELS 3 Zrotation Yrotation Xrotation
							End Site
							{
								OFFSET 0.000000 0.000000 0.000000
							}
						}
					}
				}
				JOINT LeftShoulder
				{
					OFFSET 0.000000 0.000000 0.000000
					CHANNELS 3 Zrotation Yrotation Xrotation
					JOINT LeftArm
					{
						OFFSET 3.362410 1.200890 -0.311210
						CHANNELS 3 Zrotation Yrotation Xrotation
						JOINT LeftForeArm
						{
							OFFSET 4.983000 -0.000000 -0.000000
							CHANNELS 3 Zrotation Yrotation Xrotation
							JOINT LeftHand
							{
								OFFSET 3.483560 -0.000000 -0.000000
								CHANNELS 3 Zrotation Yrotation Xrotation
								JOINT LeftFingerBase
								{
									OFFSET 0.000000 0.000000 0.000000
									CHANNELS 3 Zrotation Yrotation Xrotation
									JOINT LeftHandIndex1
									{
										OFFSET 0.715260 -0.000000 -0.000000
										CHANNELS 3 Zrotation Yrotation Xrotation
										End Site
										{
											OFFSET 0.000000 0.000000 0.000000
										}
									}
								}
								JOINT LThumb
								{
									OFFSET 0.000000 0.000000 0.000000
									CHANNELS 3 Zrotation Yrotation Xrotation
									End Site
									{
										OFFSET 0.000000 0.000000 0.000000
									}
								}
							}
						}
					}
				}
				JOINT RightShoulder
				{
					OFFSET 0.000000 0.000000 0.000000
					CHANNELS 3 Zrotation Yrotation Xrotation
					JOINT RightArm
					{
						OFFSET -3.136600 1.374050 -0.404650
						CHANNELS 3 Zrotation Yrotation Xrotation
						JOINT RightForeArm
						{
							OFFSET -5.241900 -0.000000 -0.000000
							CHANNELS 3 Zrotation Yrotation Xrotation
							JOINT RightHand
							{
								OFFSET -3.444170 -0.000000 -0.000000
								CHANNELS 3 Zrotation Yrotation Xrotation
								JOINT RightFingerBase
								{
									OFFSET 0.000000 0.000000 0.000000
									CHANNELS 3 Zrotation Yrotation Xrotation
									JOINT RightHandIndex1
									{
										OFFSET -0.622530 -0.000000 -0.000000
										CHANNELS 3 Zrotation Yrotation Xrotation
										End Site
										{
											OFFSET 0.000000 0.000000 0.000000
										}
									}
								}
								JOINT RThumb
								{
									OFFSET 0.000000 0.000000 0.000000
									CHANNELS 3 Zrotation Yrotation Xrotation
									End Site
									{
										OFFSET 0.000000 0.000000 0.000000
									}
								}
							}
						}
					}
				}
			}
		}
	}
}
}
MOTION
Frames: 17
Frame Time: 0.008333
-10.664332 16.744146 0.422848 -30.954804 86.837949 -14.763627 1.283659 -3.421870 -2.337895 -0.495238 -3.662809 -3.254868 -7.399587 -3.724616 0.682441 9.900568 -8.584872 -8.310776 -3.869642 -0.288567 -0.206606 0.000000 0.000000 0.000000 -3.596123 5.692313 1.350814 -52.891292 -2.118291 9.170443 -1.661026 -58.667878 -0.026724 17.436046 -1.960053 -0.321624 -0.207597 0.124321 0.000000 0.000000 0.000000 0.000000 0.000000 0.000000 0.000000 17.298396 -7.346194 1.808884 59.682408 -9.336038 -13.111778 4.069458 9.252049 0.001509 -4.501277 1.421366 -0.058845 0.149943 -0.032089 -0.000000 0.000000 0.000000 0.000000 0.000000 0.000000 0.000000 
-10.422897 16.723345 0.411086 -39.460333 86.343788 -23.469599 2.040710 -3.222463 -2.232431 -0.356009 -3.511480 -3.259207 -7.394617 -3.574724 0.653667 9.702458 -8.251042 -8.269937 -3.899469 -0.291170 -0.196956 0.000000 0.000000 0.000000 -4.036388 5.965379 1.392454 -53.568920 -2.044455 8.972832 -1.731066 -57.274778 -0.025119 17.222982 -1.519808 -0.248434 -0.198685 0.113461 0.000000 0.000000 0.000000 0.000000 0.000000 0.000000 0.000000 17.160425 -6.891487 1.801130 59.598776 -8.692803 -12.310253 4.077629 9.756973 0.001698 -4.579842 1.525893 -0.064230 0.151082 -0.033377 -0.000000 0.000000 0.000000 0.000000 0.000000 0.000000 0.000000 
-10.185544 16.703559 0.394700 -46.155067 85.813288 -30.376267 2.804119 -3.034001 -2.073508 -0.217374 -3.368693 -3.255857 -7.390255 -3.433570 0.612954 9.519014 -7.869650 -8.230845 -3.931185 -0.293766 -0.189098 0.000000 0.000000 0.000000 -4.481266 6.241520 1.442388 -54.323561 -1.926801 8.851971 -1.798907 -55.810410 -0.023598 17.042739 -1.074291 -0.176751 -0.189338 0.102799 0.000000 0.000000 0.000000 0.000000 0.000000 0.000000 0.000000 17.031713 -6.387535 1.799323 59.540486 -7.948513 -11.436354 4.082602 10.318390 0.001966 -4.603814 1.660136 -0.070212 0.151716 -0.034951 -0.000000 0.000000 0.000000 0.000000 0.000000 0.000000 0.000000 
-9.952579 16.685989 0.374445 -51.611912 85.274565 -36.037712 3.553730 -2.859015 -1.878220 -0.083140 -3.236045 -3.247760 -7.389388 -3.303037 0.561552 9.363566 -7.448618 -8.191850 -3.965409 -0.296435 -0.182282 0.000000 0.000000 0.000000 -4.918327 6.507785 1.497602 -55.131833 -1.758643 8.834251 -1.860662 -54.304984 -0.022129 16.915441 -0.659235 -0.111568 -0.179630 0.092620 0.000000 0.000000 0.000000 0.000000 0.000000 0.000000 0.000000 16.928806 -5.845672 1.803302 59.504014 -7.102346 -10.537487 4.081848 10.922796 0.002305 -4.593946 1.829676 -0.077092 0.151794 -0.036929 -0.000000 0.000000 0.000000 0.000000 0.000000 0.000000 0.000000 
-9.724252 16.671835 0.351269 -56.315214 84.761351 -40.920393 4.264294 -2.702364 -1.665733 0.041637 -3.117422 -3.237207 -7.394355 -3.187021 0.504012 9.248880 -7.007876 -8.153814 -4.002353 -0.299214 -0.176414 0.000000 0.000000 0.000000 -5.333255 6.753143 1.555251 -55.972836 -1.543429 8.944910 -1.913973 -52.775525 -0.020655 16.842240 -0.302568 -0.056385 -0.169603 0.083103 0.000000 0.000000 0.000000 0.000000 0.000000 0.000000 0.000000 16.870059 -5.291027 1.811761 59.483942 -6.143581 -9.627761 4.072738 11.555673 0.002687 -4.579305 2.033584 -0.085371 0.151346 -0.039342 -0.000000 0.000000 0.000000 0.000000 0.000000 0.000000 0.000000 
-9.500436 16.662064 0.325322 -60.851321 84.288914 -45.592224 4.942537 -2.567412 -1.461894 0.158174 -3.018019 -3.230966 -7.406269 -3.091029 0.433807 9.169775 -6.517015 -8.100300 -4.043731 -0.302451 -0.166530 0.000000 0.000000 0.000000 -5.727400 6.951978 1.618277 -56.827585 -1.259118 9.198425 -1.957710 -51.242759 -0.019127 16.804598 -0.016145 -0.012299 -0.159196 0.074293 0.000000 0.000000 0.000000 0.000000 0.000000 0.000000 0.000000 16.849776 -4.695371 1.824426 59.495867 -5.131126 -8.856321 4.055508 12.216871 0.003093 -4.558029 2.274954 -0.095049 0.150337 -0.042496 -0.000000 0.000000 0.000000 0.000000 0.000000 0.000000 0.000000 
-9.281153 16.657446 0.298017 -65.282510 83.892933 -50.112372 5.536689 -2.458480 -1.274610 0.256819 -2.939344 -3.225050 -7.424166 -3.015932 0.369995 9.139921 -6.054693 -8.050617 -4.085909 -0.305681 -0.157683 0.000000 0.000000 0.000000 -6.080275 7.119105 1.679550 -57.690078 -0.952430 9.611613 -1.993242 -49.687317 -0.017526 16.767418 0.193329 0.019991 -0.148608 0.066280 0.000000 0.000000 0.000000 0.000000 0.000000 0.000000 0.000000 16.888211 -4.144167 1.837366 59.518810 -3.985605 -8.065750 4.026679 12.880331 0.003466 -4.584527 2.536728 -0.106525 0.149053 -0.046051 -0.000000 0.000000 0.000000 0.000000 0.000000 0.000000 0.000000 
-9.065900 16.658326 0.269216 -69.941807 83.568781 -54.808524 6.057854 -2.373752 -1.123683 0.339530 -2.881815 -3.227594 -7.447866 -2.962700 0.296424 9.141279 -5.552402 -7.975196 -4.131577 -0.309458 -0.141375 0.000000 0.000000 0.000000 -6.398023 7.218631 1.746698 -58.549696 -0.578521 10.170595 -2.021684 -48.126701 -0.015860 16.679489 0.341700 0.042787 -0.137756 0.058999 0.000000 0.000000 0.000000 0.000000 0.000000 0.000000 0.000000 16.963498 -3.565131 1.851488 59.583911 -2.828433 -7.469885 3.988180 13.574642 0.003777 -4.624250 2.816411 -0.119202 0.147348 -0.050398 -0.000000 0.000000 0.000000 0.000000 0.000000 0.000000 0.000000 
-8.854425 16.664917 0.239888 -74.792511 83.327102 -59.655419 6.470011 -2.311691 -1.004581 0.399958 -2.841565 -3.232343 -7.474532 -2.926671 0.232138 9.177357 -5.088887 -7.895350 -4.175969 -0.313199 -0.123370 0.000000 0.000000 0.000000 -6.670407 7.276950 1.812741 -59.407950 -0.190099 10.870152 -2.046583 -46.532316 -0.014172 16.485895 0.444022 0.057989 -0.126958 0.052496 0.000000 0.000000 0.000000 0.000000 0.000000 0.000000 0.000000 17.081583 -3.039561 1.863003 59.670113 -1.579151 -6.895576 3.938616 14.274643 0.003977 -4.716042 3.097657 -0.133578 0.145571 -0.055184 -0.000000 0.000000 0.000000 0.000000 0.000000 0.000000 0.000000 
-8.646184 16.677106 0.210249 -79.852167 83.158116 -64.683359 6.767133 -2.266274 -0.916101 0.436957 -2.812335 -3.241086 -7.503032 -2.901785 0.168839 9.235241 -4.634563 -7.796426 -4.219632 -0.317106 -0.099575 0.000000 0.000000 0.000000 -6.899564 7.278558 1.881577 -60.262221 0.235862 11.673942 -2.070636 -44.909218 -0.012513 16.128571 0.527652 0.069397 -0.116285 0.046713 0.000000 0.000000 0.000000 0.000000 0.000000 0.000000 0.000000 17.227424 -2.532122 1.872276 59.791666 -0.308234 -6.419662 3.879278 15.006927 0.004050 -4.832475 3.372250 -0.148853 0.143652 -0.060525 -0.000000 0.000000 0.000000 0.000000 0.000000 0.000000 0.000000 
-8.440611 16.694562 0.180448 -85.054674 83.046660 -69.842856 6.946358 -2.230476 -0.849364 0.450478 -2.786436 -3.251500 -7.531073 -2.880154 0.108442 9.305422 -4.201929 -7.680180 -4.260697 -0.321019 -0.070497 0.000000 0.000000 0.000000 -7.089863 7.231518 1.952450 -61.113785 0.694019 12.542808 -2.097044 -43.253576 -0.010924 15.558044 0.618254 0.080014 -0.105913 0.041607 0.000000 0.000000 0.000000 0.000000 0.000000 0.000000 0.000000 17.388737 -2.050639 1.878277 59.943840 0.975157 -6.001829 3.811488 15.782273 0.003984 -4.962955 3.631290 -0.164529 0.141679 -0.066319 -0.000000 0.000000 0.000000 0.000000 0.000000 0.000000 0.000000 
-8.237125 16.716719 0.150558 -90.277617 82.977614 -75.029736 7.009511 -2.196899 -0.791426 0.441468 -2.755733 -3.260807 -7.556694 -2.853502 0.052004 9.379859 -3.800885 -7.549253 -4.297599 -0.324789 -0.036973 0.000000 0.000000 0.000000 -7.246704 7.145983 2.024647 -61.963344 1.181498 13.430609 -2.128791 -41.566577 -0.009439 14.739269 0.740141 0.092138 -0.095991 0.037088 0.000000 0.000000 0.000000 0.000000 0.000000 0.000000 0.000000 17.554480 -1.599694 1.880260 60.119994 2.261590 -5.598693 3.736838 16.614390 0.003795 -5.092531 3.869571 -0.179805 0.139705 -0.072470 -0.000000 0.000000 0.000000 0.000000 0.000000 0.000000 0.000000 
-8.035094 16.742782 0.120425 -95.378488 82.934120 -80.116678 6.968933 -2.158406 -0.730909 0.413127 -2.713084 -3.266586 -7.577751 -2.814550 0.001043 9.450524 -3.439672 -7.408547 -4.328726 -0.328241 -0.000468 0.000000 0.000000 0.000000 -7.377135 7.039426 2.097112 -62.812116 1.692564 14.292620 -2.168455 -39.852315 -0.008068 13.658314 0.913083 0.106670 -0.086648 0.033022 0.000000 0.000000 0.000000 0.000000 0.000000 0.000000 0.000000 17.711659 -1.181817 1.877263 60.311347 3.543761 -5.167422 3.657398 17.516742 0.003512 -5.204166 4.084984 -0.193880 0.137770 -0.078885 -0.000000 0.000000 0.000000 0.000000 0.000000 0.000000 0.000000 
-7.833936 16.771792 0.089921 -100.204845 82.904947 -84.963569 6.839474 -2.109222 -0.657998 0.369048 -2.652987 -3.267633 -7.592748 -2.757787 -0.046075 9.511338 -3.117963 -7.260143 -4.353168 -0.331290 0.038349 0.000000 0.000000 0.000000 -7.486089 6.919640 2.169556 -63.659514 2.236419 15.078910 -2.217418 -38.127027 -0.006803 12.324631 1.151283 0.122411 -0.077935 0.029217 0.000000 0.000000 0.000000 0.000000 0.000000 0.000000 0.000000 17.848658 -0.791700 1.869246 60.511014 4.805223 -4.681977 3.574990 18.506082 0.003176 -5.278192 4.279071 -0.205955 0.135838 -0.085520 -0.000000 0.000000 0.000000 0.000000 0.000000 0.000000 0.000000 
-7.633087 16.802580 0.058864 -104.624962 82.881844 -89.445516 6.640028 -2.045500 -0.567336 0.313582 -2.572459 -3.263396 -7.600327 -2.680171 -0.089797 9.558239 -2.837779 -7.108475 -4.369965 -0.333829 0.078211 0.000000 0.000000 0.000000 -7.577783 6.797858 2.241067 -64.503898 2.818740 15.748587 -2.276065 -36.409832 -0.005645 10.774170 1.462829 0.136857 -0.069899 0.025463 0.000000 0.000000 0.000000 0.000000 0.000000 0.000000 0.000000 17.954993 -0.427713 1.855964 60.710266 6.037375 -4.115382 3.491266 19.593721 0.002836 -5.300546 4.455967 -0.215428 0.133876 -0.092338 -0.000000 0.000000 0.000000 0.000000 0.000000 0.000000 0.000000 
-7.431993 16.833868 0.026972 -108.543235 82.859850 -93.465750 6.390690 -1.966207 -0.459129 0.251418 -2.471796 -3.252442 -7.598678 -2.581666 -0.122589 9.590179 -2.613332 -6.967406 -4.377522 -0.335607 0.115247 0.000000 0.000000 0.000000 -7.654419 6.716296 2.308741 -65.341581 3.404287 16.299737 -2.344959 -34.700530 -0.004622 9.068725 1.847286 0.146210 -0.062747 0.021628 0.000000 0.000000 0.000000 0.000000 0.000000 0.000000 0.000000 18.023110 -0.101684 1.834450 60.897893 7.256399 -3.432373 3.407728 20.778194 0.002542 -5.267703 4.622538 -0.222299 0.131911 -0.099276 -0.000000 0.000000 0.000000 0.000000 0.000000 0.000000 0.000000 
-7.230310 16.864530 -0.005922 -111.910546 82.837087 -96.976236 6.109396 -1.869890 -0.335602 0.185447 -2.350899 -3.240913 -7.589966 -2.462801 -0.166049 9.604991 -2.409649 -6.816977 -4.377959 -0.337023 0.155204 0.000000 0.000000 0.000000 -7.720704 6.595938 2.376353 -66.164806 4.109978 16.638741 -2.418208 -33.085322 -0.003733 7.276278 2.303237 0.146865 -0.056094 0.017394 0.000000 0.000000 0.000000 0.000000 0.000000 0.000000 0.000000 18.046123 0.220705 1.812291 61.073319 8.400372 -2.677010 3.324435 22.079582 0.002322 -5.164720 4.785612 -0.225769 0.129691 -0.106501 -0.000000 0.000000 0.000000 0.000000 0.000000 0.000000 0.000000 
